<?xml version="1.0" encoding="UTF-8"?>
<svg width="600" height="400" viewBox="0 0 600 400" fill="none" xmlns="http://www.w3.org/2000/svg">
  <!-- Background -->
  <rect width="600" height="400" rx="20" fill="#F9F5FF" />
  
  <!-- Decorative elements -->
  <circle cx="150" cy="200" r="100" fill="#E9D7FE" />
  <circle cx="450" cy="150" r="80" fill="#D8B4FE" />
  <circle cx="350" cy="300" r="60" fill="#C084FC" />
  
  <!-- Microphone icon -->
  <g transform="translate(250, 150) scale(2)">
    <path d="M25,10V8c0-3.9-3.1-7-7-7h-2c-3.9,0-7,3.1-7,7v2c0,3.9,3.1,7,7,7h2C21.9,17,25,13.9,25,10z" fill="#8B5CF6" />
    <path d="M16,21c-6.1,0-11-4.9-11-11h-2c0,6.6,5,12.1,11.5,12.9V30h3V22.9c6.5-0.8,11.5-6.3,11.5-12.9h-2C27,16.1,22.1,21,16,21z" fill="#8B5CF6" />
  </g>
  
  <!-- Sound waves -->
  <path d="M180,150 Q200,100 220,150" stroke="#8B5CF6" stroke-width="3" fill="none" />
  <path d="M160,150 Q200,50 240,150" stroke="#8B5CF6" stroke-width="3" fill="none" />
  <path d="M140,150 Q200,0 260,150" stroke="#8B5CF6" stroke-width="3" fill="none" />
  
  <path d="M380,150 Q360,100 340,150" stroke="#8B5CF6" stroke-width="3" fill="none" />
  <path d="M400,150 Q360,50 320,150" stroke="#8B5CF6" stroke-width="3" fill="none" />
  <path d="M420,150 Q360,0 300,150" stroke="#8B5CF6" stroke-width="3" fill="none" />
  
  <!-- Text elements -->
  <g transform="translate(150, 250)">
    <rect x="0" y="0" width="300" height="20" rx="5" fill="#C084FC" />
    <rect x="0" y="30" width="250" height="20" rx="5" fill="#C084FC" />
    <rect x="0" y="60" width="200" height="20" rx="5" fill="#C084FC" />
  </g>
</svg>
